<svg width="449" height="367" viewBox="0 0 449 367" fill="none" xmlns="http://www.w3.org/2000/svg">
<path d="M140.733 59.2447C110.34 74.7343 50.6075 98.4487 40.409 74.6508C32.1428 55.3617 31.3075 20.3327 40.409 0C20.9537 15.4896 -23.7491 68.5309 15.8604 116.61C34.0214 138.655 42.9142 160.324 23.1247 171.346C-29.2871 200.538 80.4887 210.55 140.733 195.019C200.978 179.487 171.67 219.568 121.57 273.427C71.4707 327.285 226.404 283.447 251.829 264.283C277.255 245.12 306.563 269.794 280.135 345.447C253.708 421.1 514.351 272.425 433.315 283.447C352.279 294.469 376.702 253.386 425.048 163.079C473.394 72.7719 397.744 94.6911 330.235 152.182C262.726 209.673 300.175 121.119 312.074 74.6508C323.972 28.1821 240.932 88.3033 220.893 116.61C200.853 144.917 275.626 126.631 245.567 163.079C215.507 199.528 148.875 166.712 171.67 88.3033C189.906 25.5767 158.644 42.7948 140.733 59.2447Z" fill="url(#paint0_linear_1630_4910)"/>
<path d="M198.5 197.12C198.793 197.093 199.04 197 199.24 196.84C199.44 196.68 199.607 196.48 199.74 196.24C199.873 196 199.967 195.733 200.02 195.44C200.087 195.147 200.12 194.86 200.12 194.58V191.14C200.12 190.82 200.16 190.507 200.24 190.2C200.333 189.893 200.467 189.62 200.64 189.38C200.813 189.14 201.027 188.947 201.28 188.8C201.533 188.64 201.827 188.56 202.16 188.56H203.5V189.86H202.62C202.3 189.86 202.067 190.007 201.92 190.3C201.773 190.593 201.7 190.993 201.7 191.5V194.8C201.7 195.093 201.66 195.393 201.58 195.7C201.513 195.993 201.407 196.273 201.26 196.54C201.113 196.807 200.927 197.047 200.7 197.26C200.487 197.46 200.233 197.607 199.94 197.7V197.74C200.527 197.953 200.967 198.327 201.26 198.86C201.553 199.393 201.7 200.007 201.7 200.7V203.98C201.7 204.5 201.773 204.9 201.92 205.18C202.08 205.473 202.313 205.62 202.62 205.62H203.5V206.92H202.16C201.827 206.92 201.533 206.847 201.28 206.7C201.027 206.553 200.813 206.353 200.64 206.1C200.467 205.86 200.333 205.587 200.24 205.28C200.16 204.973 200.12 204.66 200.12 204.34V200.92C200.12 200.627 200.093 200.333 200.04 200.04C199.987 199.733 199.893 199.46 199.76 199.22C199.627 198.98 199.453 198.78 199.24 198.62C199.04 198.447 198.793 198.347 198.5 198.32V197.12ZM212.112 190.64V188.64H213.872V190.64H212.112ZM213.872 192.54V201.54H217.872V203H208.112V201.54H212.112V194H208.912V192.54H213.872ZM219.544 192.54H221.204V194.02H221.244C221.804 192.833 222.591 192.24 223.604 192.24C224.524 192.24 225.184 192.807 225.584 193.94C225.771 193.647 225.944 193.393 226.104 193.18C226.278 192.967 226.451 192.793 226.624 192.66C226.811 192.513 227.011 192.407 227.224 192.34C227.438 192.273 227.691 192.24 227.984 192.24C228.358 192.24 228.691 192.327 228.984 192.5C229.291 192.673 229.551 192.913 229.764 193.22C229.978 193.527 230.138 193.9 230.244 194.34C230.364 194.767 230.424 195.24 230.424 195.76V203H228.664V196.24C228.664 194.627 228.284 193.82 227.524 193.82C227.271 193.82 227.044 193.9 226.844 194.06C226.644 194.22 226.471 194.433 226.324 194.7C226.178 194.967 226.064 195.267 225.984 195.6C225.904 195.933 225.864 196.273 225.864 196.62V203H224.104V195.76C224.104 195.16 224.031 194.687 223.884 194.34C223.738 193.993 223.531 193.82 223.264 193.82C222.918 193.82 222.618 193.92 222.364 194.12C222.124 194.307 221.924 194.56 221.764 194.88C221.604 195.2 221.484 195.573 221.404 196C221.338 196.413 221.304 196.847 221.304 197.3V203H219.544V192.54ZM241.557 202.4C241.557 205.733 239.937 207.4 236.697 207.4C235.523 207.4 234.59 207.127 233.897 206.58C233.203 206.047 232.803 205.28 232.697 204.28H234.457C234.55 204.787 234.783 205.187 235.157 205.48C235.543 205.787 236.097 205.94 236.817 205.94C237.803 205.94 238.543 205.68 239.037 205.16C239.543 204.64 239.797 203.78 239.797 202.58V201.84H239.757C239.103 202.813 238.177 203.3 236.977 203.3C236.163 203.3 235.463 203.14 234.877 202.82C234.303 202.487 233.83 202.053 233.457 201.52C233.083 200.973 232.81 200.353 232.637 199.66C232.463 198.953 232.377 198.22 232.377 197.46C232.377 196.767 232.463 196.107 232.637 195.48C232.823 194.853 233.097 194.3 233.457 193.82C233.83 193.34 234.29 192.96 234.837 192.68C235.383 192.387 236.017 192.24 236.737 192.24C238.057 192.24 239.097 192.833 239.857 194.02H239.897V192.54H241.557V202.4ZM234.197 197.74C234.197 198.247 234.243 198.74 234.337 199.22C234.43 199.7 234.583 200.133 234.797 200.52C235.023 200.893 235.317 201.2 235.677 201.44C236.037 201.667 236.483 201.78 237.017 201.78C237.51 201.78 237.937 201.687 238.297 201.5C238.657 201.313 238.95 201.06 239.177 200.74C239.417 200.42 239.59 200.047 239.697 199.62C239.817 199.193 239.877 198.74 239.877 198.26C239.877 195.3 238.937 193.82 237.057 193.82C236.097 193.82 235.377 194.14 234.897 194.78C234.43 195.407 234.197 196.393 234.197 197.74ZM251.469 198.32C251.162 198.347 250.909 198.447 250.709 198.62C250.509 198.78 250.342 198.98 250.209 199.22C250.075 199.46 249.982 199.733 249.929 200.04C249.875 200.333 249.849 200.627 249.849 200.92V204.34C249.849 204.66 249.802 204.973 249.709 205.28C249.629 205.587 249.502 205.86 249.329 206.1C249.155 206.34 248.942 206.533 248.689 206.68C248.435 206.84 248.142 206.92 247.809 206.92H246.469V205.62H247.349C247.655 205.62 247.882 205.473 248.029 205.18C248.189 204.9 248.269 204.5 248.269 203.98V200.7C248.269 200.007 248.415 199.393 248.709 198.86C249.002 198.327 249.442 197.953 250.029 197.74V197.7C249.735 197.607 249.475 197.46 249.249 197.26C249.035 197.047 248.855 196.807 248.709 196.54C248.562 196.273 248.449 195.993 248.369 195.7C248.302 195.393 248.269 195.093 248.269 194.8V191.5C248.269 190.993 248.195 190.593 248.049 190.3C247.902 190.007 247.669 189.86 247.349 189.86H246.469V188.56H247.809C248.142 188.56 248.435 188.64 248.689 188.8C248.942 188.947 249.155 189.14 249.329 189.38C249.502 189.62 249.629 189.893 249.709 190.2C249.802 190.507 249.849 190.82 249.849 191.14V194.58C249.849 194.86 249.875 195.147 249.929 195.44C249.995 195.733 250.089 196 250.209 196.24C250.342 196.48 250.509 196.68 250.709 196.84C250.922 197 251.175 197.093 251.469 197.12V198.32Z" fill="white"/>
<defs>
<linearGradient id="paint0_linear_1630_4910" x1="224.5" y1="0" x2="224.5" y2="367" gradientUnits="userSpaceOnUse">
<stop stop-color="#9900FF"/>
<stop offset="1" stop-color="#2A0046"/>
</linearGradient>
</defs>
</svg>
