<svg width="51" height="60" viewBox="0 0 51 60" fill="none" xmlns="http://www.w3.org/2000/svg">
<path d="M27.7479 8.70711C27.3574 8.31658 27.3574 7.68342 27.7479 7.2929L34.1119 0.928934C34.5024 0.538409 35.1356 0.538409 35.5261 0.928933C35.9166 1.31946 35.9166 1.95262 35.5261 2.34315L29.8693 8L35.5261 13.6569C35.9166 14.0474 35.9166 14.6805 35.5261 15.0711C35.1356 15.4616 34.5024 15.4616 34.1119 15.0711L27.7479 8.70711ZM28.4551 51.3389C39.775 51.3389 49 41.8881 49 30.1694L51 30.1694C51 42.9384 40.933 53.3389 28.4551 53.3389L28.4551 51.3389ZM49 30.1694C49 18.4508 39.775 9 28.455 9L28.455 7C40.933 7 51 17.4004 51 30.1694L49 30.1694Z" fill="white"/>
<path d="M23.3849 51.789C23.7754 52.1795 23.7754 52.8127 23.3849 53.2032L17.0209 59.5672C16.6304 59.9577 15.9972 59.9577 15.6067 59.5672C15.2162 59.1766 15.2162 58.5435 15.6067 58.153L21.2635 52.4961L15.6067 46.8392C15.2162 46.4487 15.2162 45.8156 15.6067 45.425C15.9972 45.0345 16.6304 45.0345 17.0209 45.425L23.3849 51.789ZM22.6778 9.15722C11.3579 9.15721 2.13282 18.608 2.13282 30.3267L0.132816 30.3267C0.132819 17.5577 10.1998 7.15721 22.6778 7.15722L22.6778 9.15722ZM2.13282 30.3267C2.13281 42.0453 11.3578 51.4961 22.6778 51.4961L22.6778 53.4961C10.1998 53.4961 0.132814 43.0957 0.132816 30.3267L2.13282 30.3267Z" fill="white"/>
</svg>
