<svg width="292" height="139" viewBox="0 0 292 139" fill="none" xmlns="http://www.w3.org/2000/svg">
<path d="M278.939 0.939362C279.525 0.353561 280.475 0.353561 281.061 0.939362L290.607 10.4853C291.192 11.0711 291.192 12.0208 290.607 12.6066C290.021 13.1924 289.071 13.1924 288.485 12.6066L280 4.12134L271.515 12.6066C270.929 13.1924 269.979 13.1924 269.393 12.6066C268.808 12.0208 268.808 11.0711 269.393 10.4853L278.939 0.939362ZM3.5 2.00002C3.5 75.689 65.0193 135.5 141 135.5V138.5C63.4456 138.5 0.5 77.4278 0.5 2.00002H3.5ZM141 135.5C216.981 135.5 278.5 75.689 278.5 2.00002H281.5C281.5 77.4278 218.554 138.5 141 138.5V135.5Z" fill="white"/>
</svg>
