<svg width="284" height="136" viewBox="0 0 284 136" fill="none" xmlns="http://www.w3.org/2000/svg">
<path d="M271.999 134.651C272.57 135.222 273.496 135.222 274.067 134.651L283.374 125.344C283.945 124.773 283.945 123.847 283.374 123.276C282.803 122.705 281.877 122.705 281.306 123.276L273.033 131.549L264.761 123.276C264.189 122.705 263.264 122.705 262.692 123.276C262.121 123.847 262.121 124.773 262.692 125.344L271.999 134.651ZM3.46224 133.617C3.46225 61.7745 63.4398 3.4624 137.517 3.4624L137.517 0.537584C61.9056 0.53758 0.537443 60.0793 0.537439 133.617L3.46224 133.617ZM137.517 3.4624C211.593 3.46241 271.571 61.7745 271.571 133.617L274.496 133.617C274.496 60.0793 213.127 0.537587 137.517 0.537584L137.517 3.4624Z" fill="white"/>
</svg>
